# xmcd CD database file
#
# Track frame offsets:
#	150
#	11807
#	21941
#	31595
#	44275
#	55765
#	71172
#	81730
#	95771
#	106783
#	119723
#	130871
#	142509
#	153361
#
# Disc length: 2193 seconds
#
# Revision: 0
# Processed by: cddbd v1.5.2PL0 Copyright (c) Steve Scherf et al.
# Submitted via: CDex 1.70beta2
#
DISCID=b9088f0e
DTITLE=Patsy Cline - 28 Great Country Songs [CD3]
DYEAR=1900
DGENRE=Country
TTITLE0=Crazy Dreams
TTITLE1=I´m Blue Again
TTITLE2=I´m Moving Allong
TTITLE3=A Poors Man´s Rose
TTITLE4=Hungry For Love
TTITLE5=Then You´ll Know
TTITLE6=How Can I Face Tommorrow
TTITLE7=A Church A Courtroom And Then Godbye
TTITLE8=Got A Lot Of Rythm In My Soul
TTITLE9=Just A Closer Walk With Thee
TTITLE10=A Stranger In My Arms
TTITLE11=That Wonderfull Someone
TTITLE12=Lovesick Blues
TTITLE13=Don´t Ever Leave Me
EXTD=
EXTT0=
EXTT1=
EXTT2=
EXTT3=
EXTT4=
EXTT5=
EXTT6=
EXTT7=
EXTT8=
EXTT9=
EXTT10=
EXTT11=
EXTT12=
EXTT13=
PLAYORDER=
